<svg width="48" height="48" viewBox="0 0 48 48" version="1.1" xmlns="http://www.w3.org/2000/svg" xmlns:xlink="http://www.w3.org/1999/xlink" xmlns:figma="http://www.figma.com/figma/ns">
<title>plus-icon</title>
<desc>Created using Figma</desc>
<g id="Canvas" transform="translate(622 892)" figma:type="canvas">
<g id="plus-icon" style="mix-blend-mode:normal;" figma:type="frame">
<g id="#" style="mix-blend-mode:normal;" figma:type="rounded-rectangle">
<use xlink:href="#path0_fill" transform="translate(-622 -892)" fill="#4F4F4F" style="mix-blend-mode:normal;"/>
</g>
<g id="Rectangle 3" style="mix-blend-mode:normal;" figma:type="rounded-rectangle">
<use xlink:href="#path1_fill" transform="translate(-600 -877)" fill="#FFFFFF" style="mix-blend-mode:normal;"/>
</g>
<g id="Rectangle 3" style="mix-blend-mode:normal;" figma:type="rounded-rectangle">
<use xlink:href="#path1_fill" transform="matrix(6.12323e-17 -1 1 6.12323e-17 -607 -866)" fill="#FFFFFF" style="mix-blend-mode:normal;"/>
</g>
</g>
</g>
<defs>
<path id="path0_fill" d="M 0 24C 0 10.7452 10.7452 0 24 0C 37.2548 0 48 10.7452 48 24C 48 37.2548 37.2548 48 24 48C 10.7452 48 0 37.2548 0 24Z"/>
<path id="path1_fill" d="M 0 2C 0 0.89543 0.89543 0 2 0C 3.10457 0 4 0.89543 4 2L 4 16C 4 17.1046 3.10457 18 2 18C 0.89543 18 0 17.1046 0 16L 0 2Z"/>
</defs>
</svg>
