<svg width="18" height="16" viewBox="0 0 18 16" version="1.1" xmlns="http://www.w3.org/2000/svg" xmlns:xlink="http://www.w3.org/1999/xlink" xmlns:figma="http://www.figma.com/figma/ns">
<title>&#226;&#128;&#156;</title>
<desc>Created using Figma</desc>
<g id="Canvas" transform="translate(206 -1701)" figma:type="canvas">
<g id="&#226;&#128;&#156;" style="mix-blend-mode:normal;" figma:type="vector">
<use xlink:href="#path0_fill" transform="matrix(-1 0 0 -1 -188 1717)" fill="#FFFFFF" style="mix-blend-mode:normal;"/>
</g>
</g>
<defs>
<path id="path0_fill" d="M 4.00909 15.9128C 2.78182 15.9128 1.8 15.4332 1.06364 14.4741C 0.354546 13.4859 0 12.3233 0 10.9864C 0 9.88193 0.190909 8.85014 0.572727 7.89101C 0.954545 6.93188 1.43182 6.05995 2.00455 5.2752C 2.60455 4.49046 3.23182 3.80745 3.88636 3.22616C 4.56818 2.6158 5.19545 2.10718 5.76818 1.70027C 6.34091 1.26431 6.80455 0.944596 7.15909 0.741144C 7.54091 0.537693 7.71818 0.435967 7.69091 0.435967L 8.63182 1.78747C 8.38636 1.90372 8.05909 2.13624 7.65 2.48501C 7.24091 2.80472 6.83182 3.19709 6.42273 3.66213C 6.04091 4.12716 5.7 4.63579 5.4 5.18801C 5.1 5.71117 4.95 6.2198 4.95 6.7139C 4.95 7.00454 5.11364 7.29519 5.44091 7.58583C 5.76818 7.84741 6.12273 8.16712 6.50455 8.54496C 6.88636 8.89373 7.24091 9.3297 7.56818 9.85286C 7.89545 10.347 8.05909 10.9573 8.05909 11.6839C 8.05909 12.3233 7.93636 12.9046 7.69091 13.4278C 7.47273 13.951 7.17273 14.4015 6.79091 14.7793C 6.43636 15.1281 6.01364 15.4042 5.52273 15.6076C 5.03182 15.8111 4.52727 15.9128 4.00909 15.9128ZM 14.0727 16C 13.4455 16 12.8727 15.8547 12.3545 15.564C 11.8364 15.2734 11.3864 14.881 11.0045 14.3869C 10.6227 13.8928 10.3227 13.3261 10.1045 12.6866C 9.91364 12.0182 9.81818 11.3061 9.81818 10.5504C 9.81818 9.03905 10.1182 7.64396 10.7182 6.36512C 11.3455 5.05722 12.0273 3.93824 12.7636 3.00817C 13.6364 1.90372 14.6318 0.900999 15.75 0L 16.9364 1.17711C 16.6909 1.3515 16.3909 1.62761 16.0364 2.00545C 15.7091 2.38329 15.3955 2.83379 15.0955 3.35695C 14.8227 3.85104 14.5773 4.37421 14.3591 4.92643C 14.1682 5.47866 14.0727 6.01635 14.0727 6.53951C 14.0727 6.88828 14.2773 7.17893 14.6864 7.41144C 15.0955 7.64396 15.5455 7.9346 16.0364 8.28338C 16.5273 8.63215 16.9773 9.08265 17.3864 9.63488C 17.7955 10.158 18 10.8992 18 11.8583C 18 12.4396 17.8909 12.9773 17.6727 13.4714C 17.4545 13.9655 17.1545 14.4015 16.7727 14.7793C 16.4182 15.1571 15.9955 15.4623 15.5045 15.6948C 15.0409 15.8983 14.5636 16 14.0727 16Z"/>
</defs>
</svg>
